<svg width="75" height="75" viewBox="0 0 75 75" fill="none" xmlns="http://www.w3.org/2000/svg">
<g clip-path="url(#clip0_647_111)">
<path fill-rule="evenodd" clip-rule="evenodd" d="M0.0245361 30.3597C0.0245361 19.9626 0.0245361 14.7641 2.04794 10.793C3.82777 7.29984 6.66776 4.45985 10.1609 2.68002C14.132 0.656616 19.3306 0.656616 29.7276 0.656616H44.5791C54.9762 0.656616 60.1747 0.656616 64.1459 2.68002C67.639 4.45985 70.479 7.29984 72.2588 10.793C74.2822 14.7641 74.2822 19.9626 74.2822 30.3597V45.2112C74.2822 55.6083 74.2822 60.8068 72.2588 64.7779C70.479 68.2711 67.639 71.1111 64.1459 72.8909C60.1747 74.9143 54.9762 74.9143 44.5791 74.9143H29.7276C19.3306 74.9143 14.132 74.9143 10.1609 72.8909C6.66776 71.1111 3.82777 68.2711 2.04794 64.7779C0.0245361 60.8068 0.0245361 55.6083 0.0245361 45.2112V30.3597ZM9.30674 37.7854C9.30674 22.4072 21.7681 9.93882 37.1534 9.93882C52.5317 9.93882 65 22.4072 65 37.7854C65 50.0728 57.0289 60.5153 45.8879 64.1678C44.4608 64.4463 43.9735 63.5761 43.9735 62.8451C43.9735 62.5463 43.9773 62.02 43.9823 61.3148C43.9927 59.8838 44.0083 57.7163 44.0083 55.2198C44.0083 52.6115 43.1033 50.9035 42.1286 50.0681C48.3245 49.3836 54.8337 47.0282 54.8337 36.3305C54.8337 33.2905 53.7546 30.8075 51.9794 28.8583C52.2578 28.1552 53.1977 25.3241 51.7009 21.4882C51.7009 21.4882 49.3688 20.741 44.0779 24.3425C41.8502 23.7229 39.4832 23.4166 37.1162 23.4027C34.7493 23.4166 32.3823 23.7229 30.1546 24.3425C24.8289 20.741 22.4968 21.4882 22.4968 21.4882C21 25.3241 21.9398 28.1552 22.2531 28.8583C20.4663 30.8075 19.3872 33.2905 19.3872 36.3305C19.3872 47.0004 25.8871 49.3952 32.0714 50.0913C31.2754 50.7875 30.5584 52.0151 30.3077 53.8158C28.7158 54.5282 24.6804 55.7581 22.1974 51.4999C22.1974 51.4999 20.7285 48.8266 17.9322 48.6317C17.9322 48.6317 15.2149 48.5969 17.7373 50.3234C17.7373 50.3234 19.5682 51.182 20.8352 54.396C20.8352 54.396 22.4689 59.8121 30.2149 58.1321C30.2214 59.4206 30.2314 60.5339 30.239 61.3825C30.2451 62.0621 30.2497 62.5719 30.2497 62.866C30.2497 63.6062 29.7392 64.4672 28.3469 64.2049C17.2848 60.5269 9.30674 50.0913 9.30674 37.7854Z" fill="white"/>
</g>
<defs>
<clipPath id="clip0_647_111">
<rect width="74.2577" height="74.2577" fill="white" transform="translate(0.0245361 0.656616)"/>
</clipPath>
</defs>
</svg>
