<svg width="75" height="75" viewBox="0 0 75 75" fill="none" xmlns="http://www.w3.org/2000/svg">
<g clip-path="url(#clip0_647_103)">
<path fill-rule="evenodd" clip-rule="evenodd" d="M2.28713 10.793C0.263733 14.7641 0.263733 19.9626 0.263733 30.3597V45.2112C0.263733 55.6083 0.263733 60.8068 2.28713 64.7779C4.06697 68.2711 6.90696 71.111 10.4001 72.8909C14.3712 74.9143 19.5698 74.9143 29.9668 74.9143H44.8183C55.2154 74.9143 60.4139 74.9143 64.3851 72.8909C67.8782 71.111 70.7182 68.2711 72.498 64.7779C74.5214 60.8068 74.5214 55.6083 74.5214 45.2112V30.3597C74.5214 19.9626 74.5214 14.7641 72.498 10.793C70.7182 7.29985 67.8782 4.45985 64.3851 2.68002C60.4139 0.656616 55.2154 0.656616 44.8183 0.656616H29.9668C19.5698 0.656616 14.3712 0.656616 10.4001 2.68002C6.90696 4.45985 4.06697 7.29985 2.28713 10.793ZM13.4577 62.538H23.7212V29.486H13.4577V62.538ZM12.64 18.977C12.64 22.259 15.302 24.9774 18.5839 24.9774C21.8648 24.9774 24.5279 22.259 24.5279 18.977C24.5279 17.4005 23.9016 15.8886 22.7869 14.7739C21.6722 13.6591 20.1604 13.0329 18.5839 13.0329C17.0075 13.0329 15.4957 13.6591 14.3809 14.7739C13.2662 15.8886 12.64 17.4005 12.64 18.977ZM51.8927 62.538H62.1451V44.382C62.1451 35.4974 60.2356 28.6572 49.8484 28.6572C44.8548 28.6572 41.5077 31.3977 40.1374 33.9946H39.9938V29.486H30.1502V62.538H40.4027V46.1722C40.4027 41.8625 41.2204 37.6965 46.5565 37.6965C51.8153 37.6965 51.8927 42.614 51.8927 46.4485V62.538Z" fill="white"/>
</g>
<defs>
<clipPath id="clip0_647_103">
<rect width="74.2577" height="74.2577" fill="white" transform="translate(0.263733 0.656616)"/>
</clipPath>
</defs>
</svg>
